<svg width="171" height="66" viewBox="0 0 171 66" fill="none" xmlns="http://www.w3.org/2000/svg">
<path fill-rule="evenodd" clip-rule="evenodd" d="M53.0135 16.19C53.4332 15.9665 53.4501 15.3711 53.0437 15.1242L28.8442 0.421217C28.3549 0.123917 27.7407 0.123917 27.2514 0.421217L3.15199 15.0634C2.74509 15.3106 2.76262 15.9069 3.18334 16.1298L9.34622 19.3949C9.82364 19.6479 10.3989 19.631 10.8607 19.3504L27.2512 9.39195C27.7406 9.09466 28.3547 9.09466 28.8441 9.39195L45.3499 19.4204C45.8126 19.7016 46.3893 19.7179 46.8673 19.4634L53.0135 16.19ZM8.11131 52.2633C7.71112 52.4985 7.70686 53.0756 8.10352 53.3166L27.2514 64.9506C27.7407 65.2479 28.3549 65.2479 28.8443 64.9506L47.9981 53.3129C48.3908 53.0742 48.3914 52.5043 47.9991 52.2649L42.2911 48.7808C41.8015 48.4819 41.1859 48.4813 40.6956 48.7792L28.8441 55.98C28.3548 56.2773 27.7406 56.2773 27.2512 55.98L15.5153 48.8494C15.0329 48.5563 14.4286 48.5518 13.9419 48.8377L8.11131 52.2633ZM35.3233 45.8449C35.6972 46.0866 35.6972 46.6336 35.3233 46.8753L28.6807 51.1699C28.3259 51.3992 27.8696 51.3992 27.5148 51.1699L20.8722 46.8753C20.4983 46.6336 20.4983 46.0866 20.8722 45.8449L27.5148 41.5503C27.8696 41.3209 28.3259 41.3209 28.6807 41.5503L35.3233 45.8449ZM1.22663 19.4546C0.817989 19.2372 0.324951 19.5333 0.324951 19.9962V46.8714C0.324951 47.9394 0.880379 48.9305 1.79129 49.4879L1.96465 49.594C2.93879 50.1901 4.16345 50.1958 5.14301 49.6086L6.49521 48.798L7.39411 48.2841L10.4396 46.4337L10.9931 46.1019L10.9894 46.0996L27.2518 36.2188C27.7412 35.9215 28.3554 35.9215 28.8447 36.2188L45.1065 46.0992L45.1007 46.1028L50.879 49.6232C51.8581 50.2197 53.0881 50.2204 54.0679 49.6251L54.2958 49.4867C55.2115 48.9303 55.7705 47.9365 55.7705 46.865V20.1341C55.7705 19.6714 55.2778 19.3752 54.8692 19.5923L48.9187 22.7534C48.4177 23.0195 48.1045 23.5405 48.1045 24.1079V38.9502L28.8447 27.2482C28.3554 26.9508 27.7412 26.9508 27.2518 27.2482L7.99069 38.951V23.9747C7.99069 23.4077 7.67789 22.887 7.17734 22.6207L1.22663 19.4546ZM95.5255 46.5166C94.9375 46.1806 94.2655 46.0126 93.5095 46.0126C92.8495 46.0126 92.2495 46.1386 91.7095 46.3906C91.1695 46.6306 90.7375 46.9666 90.4135 47.3986V42.8086H87.8935V56.1286H90.4135V50.6206C90.4135 49.8286 90.6115 49.2226 91.0075 48.8026C91.4155 48.3706 91.9675 48.1546 92.6635 48.1546C93.3475 48.1546 93.8875 48.3706 94.2835 48.8026C94.6795 49.2226 94.8775 49.8286 94.8775 50.6206V56.1286H97.3975V50.2786C97.3975 49.3786 97.2295 48.6106 96.8935 47.9746C96.5695 47.3266 96.1135 46.8406 95.5255 46.5166ZM75.0131 46.5166C74.4611 47.4886 74.1851 48.5926 74.1851 49.8286C74.1851 51.0646 74.4611 52.1686 75.0131 53.1406C75.5771 54.1126 76.3391 54.8746 77.2991 55.4266C78.2711 55.9666 79.3571 56.2366 80.5571 56.2366C81.9731 56.2366 83.2031 55.8826 84.2471 55.1746C85.3031 54.4546 86.0411 53.4526 86.4611 52.1686H83.5631C83.2751 52.7686 82.8671 53.2246 82.3391 53.5366C81.8231 53.8366 81.2231 53.9866 80.5391 53.9866C79.8071 53.9866 79.1531 53.8186 78.5771 53.4826C78.0131 53.1346 77.5691 52.6486 77.2451 52.0246C76.9331 51.3886 76.7771 50.6566 76.7771 49.8286C76.7771 48.9886 76.9331 48.2566 77.2451 47.6326C77.5691 47.0086 78.0131 46.5286 78.5771 46.1926C79.1531 45.8446 79.8071 45.6706 80.5391 45.6706C81.2231 45.6706 81.8231 45.8206 82.3391 46.1206C82.8671 46.4206 83.2751 46.8706 83.5631 47.4706H86.4611C86.0411 46.1986 85.3031 45.2026 84.2471 44.4826C83.1911 43.7626 81.9611 43.4026 80.5571 43.4026C79.3571 43.4026 78.2711 43.6786 77.2991 44.2306C76.3391 44.7706 75.5771 45.5326 75.0131 46.5166ZM98.7859 51.1066C98.7859 50.0986 98.9839 49.2046 99.3799 48.4246C99.7879 47.6446 100.334 47.0446 101.018 46.6246C101.714 46.2046 102.488 45.9946 103.34 45.9946C104.084 45.9946 104.732 46.1446 105.284 46.4446C105.848 46.7446 106.298 47.1226 106.634 47.5786V46.1566H109.172V56.1286H106.634V54.6706C106.31 55.1386 105.86 55.5286 105.284 55.8406C104.72 56.1406 104.066 56.2906 103.322 56.2906C102.482 56.2906 101.714 56.0746 101.018 55.6426C100.334 55.2106 99.7879 54.6046 99.3799 53.8246C98.9839 53.0326 98.7859 52.1266 98.7859 51.1066ZM106.634 51.1426C106.634 50.5306 106.514 50.0086 106.274 49.5766C106.034 49.1326 105.71 48.7966 105.302 48.5686C104.894 48.3286 104.456 48.2086 103.988 48.2086C103.52 48.2086 103.088 48.3226 102.692 48.5506C102.296 48.7786 101.972 49.1146 101.72 49.5586C101.48 49.9906 101.36 50.5066 101.36 51.1066C101.36 51.7066 101.48 52.2346 101.72 52.6906C101.972 53.1346 102.296 53.4766 102.692 53.7166C103.1 53.9566 103.532 54.0766 103.988 54.0766C104.456 54.0766 104.894 53.9626 105.302 53.7346C105.71 53.4946 106.034 53.1586 106.274 52.7266C106.514 52.2826 106.634 51.7546 106.634 51.1426ZM113.847 53.0506V48.2266H116.079V46.1566H113.847V43.6906H111.309V46.1566H110.121V48.2266H111.309V53.0326C111.309 55.0966 112.371 56.1286 114.495 56.1286H116.079V54.0046H114.909C114.525 54.0046 114.249 53.9326 114.081 53.7886C113.925 53.6326 113.847 53.3866 113.847 53.0506ZM80.6449 35.9764C80.4556 35.9764 80.2866 35.858 80.2219 35.6801L71.7579 12.4205C71.6511 12.1269 71.8685 11.8164 72.181 11.8164H76.3663C76.5553 11.8164 76.7242 11.9345 76.7891 12.112L82.0596 26.5212C82.116 26.6752 82.3322 26.6798 82.3951 26.5283L87.6355 13.8961C87.7052 13.728 87.8693 13.6184 88.0513 13.6184H92.0248C92.2064 13.6184 92.3703 13.7276 92.4402 13.8952L97.7134 26.5297C97.7765 26.6809 97.9925 26.6761 98.0487 26.5221L103.31 12.1122C103.375 11.9346 103.544 11.8164 103.733 11.8164H107.9C108.212 11.8164 108.43 12.1269 108.323 12.4205L99.8588 35.6801C99.7941 35.858 99.625 35.9764 99.4357 35.9764H96.3057C96.1199 35.9764 95.9532 35.8623 95.886 35.6891L90.1918 21.0167C90.1323 20.8633 89.9152 20.8635 89.856 21.0169L84.1897 35.6884C84.1226 35.862 83.9558 35.9764 83.7697 35.9764H80.6449ZM113.894 35.9759C113.027 35.9759 112.232 35.7581 111.51 35.3224C110.788 34.8867 110.213 34.3106 109.787 33.5943C109.361 32.8779 109.148 32.0898 109.148 31.2299V28.2667C109.148 25.9593 110.996 24.0773 113.303 24.0356L123.931 23.8436C124.03 23.8418 124.108 23.7617 124.108 23.6635V21.4883C124.108 21.4348 124.089 21.3891 124.051 21.351C124.013 21.3129 123.967 21.2938 123.914 21.2938H111.22C110.971 21.2938 110.77 21.0923 110.77 20.8436V16.9639C110.77 16.7153 110.971 16.5137 111.22 16.5137H124.142C125.025 16.5137 125.824 16.7304 126.538 17.1639C127.252 17.5973 127.823 18.1752 128.251 18.8975C128.679 19.6198 128.894 20.4072 128.894 21.2597V35.5257C128.894 35.7744 128.692 35.9759 128.443 35.9759H113.894ZM114.122 31.1954H123.928C124.028 31.1954 124.108 31.1147 124.108 31.0153V28.2574C124.108 28.158 124.028 28.0773 123.928 28.0773H114.108C114.009 28.0773 113.928 28.158 113.928 28.2574V31.0009C113.928 31.0543 113.947 31.1001 113.985 31.1382C114.023 31.1763 114.069 31.1954 114.122 31.1954ZM133.156 35.9759C132.907 35.9759 132.706 35.7744 132.706 35.5257V21.2597C132.706 20.3999 132.923 19.6118 133.359 18.8954C133.795 18.179 134.374 17.603 135.096 17.1673C135.818 16.7316 136.613 16.5137 137.48 16.5137H147.797C148.046 16.5137 148.248 16.7153 148.248 16.9639V20.8436C148.248 21.0923 148.046 21.2938 147.797 21.2938H137.68C137.627 21.2938 137.581 21.3129 137.543 21.351C137.505 21.3891 137.486 21.4348 137.486 21.4883V35.5257C137.486 35.7744 137.284 35.9759 137.035 35.9759H133.156ZM151.704 40.9907C151.456 40.9907 151.254 40.7891 151.254 40.5405V16.9639C151.254 16.7153 151.456 16.5137 151.704 16.5137H166.254C167.121 16.5137 167.915 16.7316 168.638 17.1673C169.36 17.603 169.934 18.179 170.361 18.8954C170.787 19.6118 171 20.3999 171 21.2597V31.2299C171 32.0898 170.787 32.8779 170.361 33.5943C169.934 34.3106 169.36 34.8867 168.638 35.3224C167.915 35.7581 167.121 35.9759 166.254 35.9759H156.214C156.115 35.9759 156.034 36.0566 156.034 36.156V40.5405C156.034 40.7891 155.833 40.9907 155.584 40.9907H151.704ZM156.233 31.1954H166.025C166.078 31.1954 166.124 31.1764 166.162 31.1383C166.201 31.1002 166.22 31.0544 166.22 31.0009V21.4879C166.22 21.4344 166.201 21.3886 166.162 21.3505C166.124 21.3124 166.078 21.2934 166.025 21.2934H156.233C156.18 21.2934 156.134 21.3124 156.094 21.3505C156.054 21.3886 156.034 21.4344 156.034 21.4879V31.0009C156.034 31.0544 156.054 31.1002 156.094 31.1383C156.134 31.1764 156.18 31.1954 156.233 31.1954Z" fill="#240070"/>
</svg>
